<svg width="147" height="118" viewBox="0 0 147 118" fill="none" xmlns="http://www.w3.org/2000/svg">
<path d="M141.194 101.181C144.32 104.987 146.705 109.223 148.788 113.65C149.255 114.625 149.788 115.567 150.385 116.471C150.95 117.34 151.667 118.473 152.841 117.791C154.165 117.021 153.302 115.83 152.769 114.953C150.934 111.916 148.997 108.93 147.124 105.926C146.127 104.337 145.171 102.724 144.136 101.164C143.679 100.478 143.914 100.238 144.584 100.043C145.255 99.8489 145.993 99.5345 146.705 99.3235C151.529 97.8921 154.249 94.5495 155.355 89.854C156.114 86.6371 156.204 83.3016 155.619 80.0494C154.97 76.3261 152.111 75.1761 148.914 77.348C147.359 78.4153 146.399 79.9874 145.536 81.6008C144.672 83.2142 143.964 84.778 143.155 86.3583C142.95 86.772 142.828 87.4711 142.187 87.2312C141.667 87.0367 141.768 86.4038 141.831 85.9073C142.099 84.0788 142.929 82.4447 143.717 80.8023C144.76 78.6263 146.206 76.6654 147.132 74.4149C149.056 69.7442 147.744 66.4512 143.067 64.3207C139.191 62.5583 135.05 62.5418 130.913 62.5749C129.698 62.5749 129.543 63.5636 129.547 64.4862C129.547 66.9063 130.121 69.2602 130.452 71.6431C130.833 73.8721 131.011 76.1302 130.985 78.3905C130.973 79.0275 130.892 79.6615 130.741 80.2811C130.389 81.5884 129.371 81.82 128.415 80.8272C127.872 80.2491 127.475 79.5513 127.259 78.7918C126.387 75.9249 126.001 73.0373 126.68 70.0711C127.071 68.5414 127.129 66.9475 126.852 65.394C126.575 63.8404 125.968 62.3623 125.071 61.0566C123.843 59.2115 122.297 58.0366 119.966 58.0035C117.636 57.9705 115.277 58.1566 113.089 59.0874C111.48 59.77 111.136 60.705 111.865 62.2853C112.397 63.4436 113.123 64.5193 113.584 65.7066C113.94 66.6498 114.33 68.0398 113.416 68.6024C112.418 69.1982 111.739 67.895 111.136 67.1917C110.243 66.141 109.502 64.9661 108.672 63.8615C105.893 60.1382 102.712 59.1205 98.2194 60.4361C96.1993 61.0277 94.3804 62.0702 92.4693 62.8934C91.0025 63.5223 89.5356 64.1345 87.8886 64.0807C87.5491 64.0807 87.1258 64.0145 87.0168 64.4531C86.9079 64.8916 87.3521 64.9785 87.6622 65.0819C91.5389 66.3892 94.1457 68.8672 95.4617 72.7849C96.3711 75.5029 97.8925 76.02 100.424 74.5431C102.687 73.2276 104.967 73.302 107.352 73.8067C108.064 73.9639 108.797 74.1749 109.233 75.0478C108.093 75.5401 106.903 75.5236 105.755 75.6766C103.781 75.929 101.773 76.0241 99.9083 76.7936C98.7013 77.2901 97.9763 77.9851 98.3116 79.5075C98.6468 81.0299 98.6594 82.7219 99.0282 84.3105C99.1705 85.0917 99.5598 85.8084 100.14 86.3576C100.721 86.9069 101.463 87.2605 102.259 87.3677C104.611 87.8393 106.92 87.4215 109.233 87.0657C112.104 86.6189 114.967 86.3417 117.816 87.1815C117.913 87.2105 118.018 87.2146 118.11 87.2477C119.199 87.6407 120.578 88.0751 120.465 89.3493C120.352 90.6235 118.831 90.4084 117.875 90.5076C115.361 90.7765 112.913 90.2884 110.47 89.8044C108.026 89.3203 105.487 88.8487 102.959 88.5633C102.22 88.4403 101.46 88.5088 100.755 88.7618C100.13 89.0142 99.6401 89.5024 99.8496 90.1064C100.629 92.3486 100.516 94.7646 101.451 96.9861C103.626 102.153 108.156 104.846 113.797 104.155C115.893 103.903 117.921 103.448 120.021 103.419C121.262 103.366 122.497 103.616 123.617 104.147C121.764 104.466 120.218 104.685 118.692 104.999C116.534 105.442 114.451 106.083 112.662 107.436C111.891 107.993 111.321 108.779 111.035 109.678C110.885 110.024 110.879 110.413 111.019 110.763C111.159 111.113 111.433 111.393 111.781 111.544C113.36 112.382 114.846 113.38 116.215 114.523C119.279 116.951 122.804 117.075 126.433 116.537C133.675 115.47 138.931 110.369 140.787 102.724C140.913 102.203 141.081 101.694 141.232 101.177C136.493 94.4329 130.974 88.2575 124.786 82.7757C116.823 75.7015 108.022 69.8725 97.9637 65.9962C97.5069 65.8224 96.6268 65.8307 96.7944 65.1481C96.9453 64.5441 97.729 64.8502 98.2445 64.8668C98.4935 64.8828 98.7404 64.9216 98.9821 64.9826C103.037 65.8151 106.921 67.3172 110.47 69.4257C122.749 76.9674 133.579 86.0976 141.936 97.8797C143.302 99.8034 143.252 100.114 141.194 101.181ZM134.199 72.8304C133.591 71.3701 132.762 69.7939 132.665 67.9984C132.569 66.203 133.583 65.3467 135.36 65.7231C136.581 65.9936 137.726 66.5277 138.713 67.2869C140.15 68.3625 140.108 69.1444 138.516 70.0049C137.502 70.5509 136.705 71.1591 136.68 72.4333C136.68 73.0042 136.584 73.6743 135.813 73.7902C135.096 73.9102 134.71 73.4261 134.199 72.8304ZM121.701 112.5C120.729 111.283 120.951 109.376 122.251 109.19C124.489 108.884 126.794 108.834 128.998 109.562C129.597 109.761 129.987 110.489 129.22 110.704C127.493 111.184 126.232 112.442 124.635 113.083C123.546 113.534 122.498 113.555 121.701 112.5ZM140.561 80.9637C140.004 81.3484 139.509 81.8407 138.885 81.5098C138.26 81.1788 138.009 80.5086 138.046 79.7557C138.143 78.1009 138.885 76.7481 139.945 75.5236C140.389 75.0106 140.879 74.3239 141.667 74.6755C142.037 74.8397 142.341 75.1208 142.531 75.4744C142.72 75.828 142.785 76.234 142.715 76.6281C142.516 78.2708 141.76 79.7987 140.569 80.9637H140.561ZM115.805 95.0293C114.309 96.1174 110.294 95.472 109.179 93.9703C108.609 93.1925 109.036 92.7292 109.749 92.5513C111.686 92.0468 113.733 92.1378 115.616 92.8119C116.676 93.2256 116.727 94.3716 115.813 95.0376L115.805 95.0293ZM116.425 61.9006C117.147 61.4783 117.96 61.2301 118.797 61.1762C119.635 61.1223 120.473 61.2642 121.245 61.5903C121.556 61.6883 121.823 61.8909 121.999 62.1629C122.175 62.435 122.249 62.7593 122.209 63.0796C122.121 63.8574 121.505 64.1014 120.855 64.2297C119.537 64.4624 118.185 64.4272 116.882 64.1263C116.371 64.0187 115.746 63.9856 115.675 63.2658C115.665 62.993 115.731 62.7228 115.864 62.4839C115.998 62.245 116.195 62.0462 116.433 61.9088L116.425 61.9006ZM130 95.9312C129.529 96.2969 128.976 96.5456 128.387 96.6565C127.799 96.7673 127.192 96.7371 126.618 96.5683C125.804 96.3863 124.853 96.1546 124.912 95.0748C124.966 94.0778 125.796 93.7386 126.676 93.6186C127.749 93.478 128.835 93.4159 129.907 93.2587C130.591 93.1636 130.8 93.5235 130.871 94.0613C130.93 94.4235 130.88 94.7948 130.727 95.1288C130.573 95.4629 130.323 95.7449 130.008 95.9395L130 95.9312ZM98.9863 69.6284C99.6778 69.0989 100.172 68.6314 100.797 69.0286C101.501 69.4795 101.216 70.1662 101.006 70.7661C100.873 71.1654 100.644 71.5273 100.339 71.821C100.034 72.1148 99.6622 72.3319 99.2545 72.454C99.0023 72.5675 98.7186 72.5937 98.4494 72.5284C98.1802 72.4631 97.9411 72.31 97.7709 72.094C97.3518 71.5686 97.7332 71.1591 98.014 70.7744C98.3744 70.3069 98.7851 69.8808 98.9989 69.6367L98.9863 69.6284Z" fill="#E28541" fill-opacity="0.3"/>
<path d="M0.0166101 34.5448C-2.52083 37.5896 -4.45621 40.9786 -6.1467 44.5198C-6.52569 45.2999 -6.95866 46.054 -7.44263 46.777C-7.90182 47.472 -8.48346 48.3788 -9.43585 47.8327C-10.5107 47.2171 -9.81 46.264 -9.37802 45.5623C-7.88821 43.1331 -6.31677 40.7436 -4.79635 38.3409C-3.98682 37.07 -3.21131 35.7793 -2.37117 34.5316C-2.00042 33.9822 -2.19089 33.7902 -2.73511 33.6347C-3.27933 33.4791 -3.87798 33.2276 -4.45621 33.0588C-8.37121 31.9137 -10.5787 29.2396 -11.4767 25.4832C-12.0928 22.9097 -12.1657 20.2413 -11.691 17.6395C-11.1638 14.6609 -8.84401 13.7409 -6.24875 15.4784C-4.98684 16.3322 -4.20792 17.5899 -3.50723 18.8806C-2.80655 20.1713 -2.2317 21.4224 -1.57524 22.6866C-1.40857 23.0176 -1.30993 23.5769 -0.789516 23.3849C-0.367744 23.2294 -0.449386 22.723 -0.500407 22.3259C-0.718096 20.863 -1.39157 19.5558 -2.03103 18.2419C-2.87798 16.501 -4.05145 14.9323 -4.80316 13.1319C-6.3644 9.39539 -5.29976 6.76098 -1.50381 5.05655C1.64247 3.64668 5.00305 3.63344 8.36022 3.65992C9.34662 3.65992 9.47247 4.4509 9.46907 5.18893C9.46907 7.12503 9.00308 9.00817 8.73437 10.9145C8.42576 12.6977 8.2812 14.5042 8.30239 16.3124C8.31144 16.822 8.37759 17.3292 8.49967 17.8249C8.78539 18.8707 9.61192 19.056 10.3874 18.2617C10.8289 17.7993 11.1507 17.2411 11.3262 16.6334C12.0337 14.3399 12.3466 12.0298 11.7956 9.65685C11.4786 8.43313 11.4311 7.15803 11.6562 5.91519C11.8813 4.67236 12.3739 3.48987 13.1018 2.4453C14.0984 0.969233 15.3535 0.0293139 17.2446 0.00283738C19.1358 -0.0236392 21.0508 0.1253 22.8263 0.869953C24.1325 1.41603 24.4114 2.16399 23.8195 3.42824C23.3875 4.35492 22.7991 5.21541 22.425 6.16526C22.1358 6.91984 21.8195 8.03186 22.561 8.48196C23.3705 8.95854 23.9216 7.91602 24.4114 7.35339C25.1359 6.51276 25.7379 5.57284 26.4114 4.68919C28.6665 1.71058 31.2482 0.896422 34.8944 1.94886C36.5339 2.42213 38.0101 3.25614 39.5611 3.91475C40.7516 4.4178 41.9421 4.90762 43.2789 4.86459C43.5544 4.86459 43.8979 4.81164 43.9863 5.16245C44.0748 5.51327 43.7142 5.58277 43.4625 5.66551C40.3163 6.71134 38.2006 8.69377 37.1326 11.8279C36.3945 14.0023 35.1597 14.416 33.1053 13.2345C31.2686 12.182 29.4182 12.2416 27.4828 12.6454C26.9046 12.7712 26.3093 12.9399 25.9556 13.6383C26.8808 14.0321 27.8468 14.0189 28.7787 14.1413C30.3808 14.3432 32.0101 14.4193 33.5237 15.0349C34.5033 15.432 35.0917 15.9881 34.8196 17.206C34.5475 18.4239 34.5373 19.7775 34.238 21.0484C34.1225 21.6734 33.8065 22.2467 33.3354 22.6861C32.8642 23.1255 32.2621 23.4084 31.6155 23.4942C29.7073 23.8714 27.8332 23.5372 25.9556 23.2526C23.6256 22.8951 21.3025 22.6734 18.9896 23.3452C18.9113 23.3684 18.8263 23.3717 18.7515 23.3982C17.8671 23.7126 16.748 24.0601 16.8399 25.0794C16.9317 26.0988 18.1664 25.9267 18.9419 26.0061C20.9828 26.2212 22.9692 25.8307 24.9522 25.4435C26.9352 25.0563 28.9964 24.679 31.0475 24.4506C31.6479 24.3523 32.2643 24.407 32.8366 24.6095C33.3434 24.8114 33.7414 25.2019 33.5713 25.6851C32.9386 27.4789 33.0305 29.4117 32.272 31.1889C30.5066 35.3225 26.8297 37.4771 22.2515 36.9244C20.5508 36.7225 18.9045 36.3584 17.2004 36.3353C16.1932 36.2927 15.1907 36.4928 14.282 36.9178C15.7854 37.1726 17.0406 37.348 18.2787 37.5995C20.0304 37.9537 21.7209 38.4666 23.1733 39.5489C23.7989 39.9942 24.2615 40.6228 24.493 41.3426C24.6151 41.6188 24.6199 41.9308 24.5065 42.2104C24.393 42.49 24.1706 42.7147 23.8875 42.8353C22.6061 43.5056 21.4 44.3042 20.2889 45.2182C17.8025 47.1609 14.9419 47.2602 11.9963 46.8299C6.1187 45.976 1.85336 41.8953 0.346545 35.7793C0.244504 35.3623 0.108449 34.9552 -0.0140009 34.5415C3.83175 29.1463 8.31102 24.206 13.333 19.8205C19.7957 14.1612 26.9386 9.49799 35.1019 6.39692C35.4727 6.25792 36.187 6.26455 36.0509 5.71847C35.9285 5.23527 35.2924 5.48017 34.874 5.49341C34.672 5.50623 34.4716 5.53726 34.2754 5.58609C30.9843 6.2521 27.8323 7.45379 24.9522 9.14056C14.9861 15.1739 6.19693 22.4781 -0.585442 31.9038C-1.69429 33.4427 -1.65347 33.6909 0.0166101 34.5448ZM5.69352 11.8643C6.18673 10.696 6.8602 9.43511 6.93843 7.99875C7.01667 6.5624 6.19353 5.87732 4.75134 6.17849C3.76051 6.39492 2.83122 6.82215 2.03023 7.42951C0.863553 8.29 0.897567 8.91551 2.19009 9.6039C3.01323 10.0408 3.6595 10.5273 3.6799 11.5466C3.6799 12.0033 3.75814 12.5395 4.38399 12.6321C4.96563 12.7281 5.27856 12.3409 5.69352 11.8643ZM15.8365 43.5998C16.6256 42.6268 16.4453 41.1011 15.3909 40.9521C13.5745 40.7072 11.7038 40.6675 9.91465 41.25C9.42825 41.4088 9.11192 41.9913 9.73437 42.1634C11.1357 42.5473 12.1596 43.5534 13.4555 44.0664C14.3399 44.4272 15.1902 44.4437 15.8365 43.5998ZM0.530215 18.3709C0.9826 18.6787 1.38396 19.0726 1.89077 18.8078C2.39758 18.543 2.60166 18.0069 2.57105 17.4045C2.49282 16.0807 1.89077 14.9985 1.03022 14.0189C0.669673 13.6085 0.271713 13.0591 -0.367748 13.3404C-0.667815 13.4717 -0.914337 13.6966 -1.06834 13.9795C-1.22234 14.2624 -1.27504 14.5872 -1.21809 14.9025C-1.05623 16.2167 -0.442498 17.439 0.523417 18.3709H0.530215ZM20.6222 29.6235C21.8365 30.4939 25.095 29.9776 25.9998 28.7762C26.4624 28.154 26.1155 27.7834 25.5372 27.641C23.9651 27.2375 22.3038 27.3102 20.7753 27.8495C19.9147 28.1805 19.8739 29.0973 20.6154 29.6301L20.6222 29.6235ZM20.1188 3.12045C19.5328 2.78265 18.8732 2.58412 18.1935 2.54099C17.5139 2.49786 16.8333 2.61135 16.2072 2.87224C15.9543 2.95063 15.7376 3.11271 15.5947 3.33035C15.4518 3.54799 15.3917 3.80745 15.4249 4.06368C15.4963 4.68588 15.9963 4.88115 16.5235 4.98374C17.593 5.16994 18.6902 5.14178 19.7481 4.901C20.163 4.81495 20.6698 4.78847 20.7277 4.21261C20.7354 3.99442 20.6823 3.77827 20.5739 3.58713C20.4655 3.39598 20.3059 3.23699 20.112 3.12707L20.1188 3.12045ZM9.10172 30.345C9.48391 30.6375 9.9327 30.8365 10.4104 30.9252C10.888 31.0139 11.3806 30.9897 11.8466 30.8546C12.5065 30.709 13.2786 30.5237 13.231 29.6599C13.1868 28.8623 12.5133 28.5909 11.799 28.4949C10.9283 28.3824 10.0473 28.3327 9.17655 28.207C8.62212 28.1309 8.45205 28.4188 8.39423 28.849C8.34628 29.1388 8.38717 29.4358 8.5118 29.7031C8.63642 29.9703 8.83925 30.1959 9.09491 30.3516L9.10172 30.345ZM34.272 9.30272C33.7108 8.8791 33.3094 8.50513 32.8026 8.82284C32.2312 9.18359 32.4624 9.73297 32.6325 10.2129C32.7409 10.5324 32.9266 10.8218 33.1741 11.0568C33.4215 11.2918 33.7234 11.4655 34.0543 11.5632C34.259 11.654 34.4892 11.6749 34.7077 11.6227C34.9262 11.5704 35.1202 11.448 35.2584 11.2752C35.5985 10.8549 35.289 10.5273 35.0611 10.2195C34.7686 9.8455 34.4353 9.50461 34.2618 9.30935L34.272 9.30272Z" fill="#E28541" fill-opacity="0.3"/>
</svg>
