<svg width="63" height="45" viewBox="0 0 63 45" fill="none" xmlns="http://www.w3.org/2000/svg">
<path d="M32.323 44.7146C20.0868 44.6918 10.0146 34.7464 9.99159 22.6314C9.95706 10.1853 20.0523 0.0800198 32.5187 0.285551C44.5132 0.479665 54.643 9.32894 54.7466 22.4601C54.8502 34.929 44.9737 44.4748 32.323 44.7146V44.7146ZM32.1274 36.6761C39.8167 36.6646 46.1248 30.4759 46.1478 22.9397C46.1593 15.1181 40.0239 8.94072 32.2079 8.90646C24.4149 8.88362 18.0954 15.0267 17.9918 22.7456C17.8882 30.2475 24.4265 36.6989 32.1389 36.6761H32.1274ZM1.95688 13.0742V4.83008C1.95688 4.23633 1.41586 4.20207 1.32377 4.83008C1.09355 6.62278 1.02448 7.86738 0.610085 9.6144C-0.0805784 12.5489 0.253242 15.0496 2.30221 17.5045C3.16554 18.5436 3.28065 20.4277 3.25763 21.9235C3.17705 27.7925 2.84323 33.673 2.79719 39.5421C2.79719 39.7019 2.84323 39.8618 2.9123 40.0217C3.47634 41.2663 5.36415 41.3005 5.96273 40.0788C6.03179 39.9189 6.07784 39.7705 6.07784 39.6106C6.08935 34.0612 5.76704 28.5119 5.81308 22.9625C5.82459 20.8958 5.92819 18.418 7.04476 16.8651C9.99159 12.8458 7.72392 9.47738 7.70089 5.29824C7.70089 3.9737 6.61886 3.9737 6.61886 5.2754V13.1884C6.61886 14.1475 5.69797 14.1475 5.69797 13.1884V5.00136C5.69797 4.0993 4.73104 4.06505 4.73104 5.03561V13.1084C4.73104 14.1704 3.86771 14.1475 3.86771 13.097V4.8415C3.86771 4.1564 3.02741 4.12214 3.02741 4.8415V13.0399C3.02741 13.9534 1.94537 13.9534 1.94537 13.0742H1.95688ZM61.2503 4.22491C60.5597 5.60654 60.1453 6.85114 59.8575 8.3127C59.0402 12.469 58.4762 16.671 57.9351 20.873C57.7279 22.4715 57.4632 24.1729 59.351 25.2919C59.8114 25.5659 59.869 26.742 59.8575 27.4957C59.8229 30.944 59.6733 34.381 59.6388 37.8293C59.6388 39.0283 59.2819 40.7867 61.2158 40.6268C61.7798 40.5812 62.6201 40.1244 62.6201 37.8864C62.7352 30.3388 62.6892 22.7913 62.6892 15.2437C62.6892 11.6469 62.6892 8.0615 62.6892 4.46469C62.6892 2.7976 61.5726 3.5398 61.2388 4.22491H61.2503Z" stroke="white" stroke-width="0.75" stroke-miterlimit="10"/>
</svg>
