<svg width="31" height="58" viewBox="0 0 31 58" fill="none" xmlns="http://www.w3.org/2000/svg">
<path d="M1.45117 24.8276C9.52968 28.3122 17.4825 28.3008 25.5039 24.8047C25.3782 26.8565 25.2639 28.9312 25.1154 31.0059C24.8411 34.8458 24.5669 38.6857 24.2698 42.5257C23.9842 46.1707 23.6985 49.8158 23.3671 53.4608C23.23 55.0083 22.1673 55.7419 21.0133 56.2806C18.7166 57.3581 16.2827 57.702 13.8032 57.7249C11.3008 57.7478 8.83266 57.4727 6.44453 56.5786C6.06746 56.4411 5.71324 56.2118 5.33617 56.017C3.75932 55.2261 3.46223 53.7016 3.35939 51.9822C3.14229 48.3371 2.82235 44.6921 2.55954 41.047C2.18246 35.9921 1.81682 30.9371 1.45117 25.8822C1.42832 25.5383 1.45117 25.183 1.45117 24.8391V24.8276Z" stroke="white" stroke-width="0.75" stroke-miterlimit="10"/>
<path d="M17.4939 15.9672C17.4254 15.3482 17.5054 14.8668 18.2024 15.0616C20.0535 15.5545 21.9045 16.0474 23.7328 16.632C24.327 16.8268 24.8411 17.3197 25.4125 17.6292C26.9436 18.4774 26.9436 22.1683 25.4125 23.1083C23.4814 24.3004 21.4246 24.9996 19.2879 25.4351C14.4545 26.4095 9.64395 26.249 4.92482 24.7015C3.72504 24.3118 2.53668 23.6928 1.48545 22.9363C-0.159962 21.7442 -0.0799764 19.0162 1.5083 17.6865C2.83377 16.5632 4.37634 15.9672 5.96462 15.6462C8.06709 15.2106 10.2038 15.0158 12.3292 14.7292C12.5805 14.6948 12.8434 14.7521 13.0947 14.7636C13.2661 15.5774 13.0148 15.8296 12.3177 15.864C9.50683 15.9786 6.69592 16.1391 4.07926 17.4802C3.38224 17.8355 2.49098 18.2482 2.65095 19.1652C2.76521 19.7842 3.49651 20.4604 4.09068 20.747C6.31884 21.8245 8.70697 22.1913 11.118 22.3059C14.8658 22.4893 18.5909 22.4205 22.1902 21.0336C22.6244 20.8616 23.0586 20.6553 23.4471 20.3917C24.5898 19.6466 24.6697 18.6608 23.55 17.8699C22.8301 17.3656 21.9845 17.0332 21.1504 16.781C19.962 16.4257 18.728 16.2308 17.4939 15.9557V15.9672Z" stroke="white" stroke-width="0.75" stroke-miterlimit="10"/>
<path d="M30.6915 2.59048C30.7943 2.87704 30.6458 3.18652 30.3716 3.31261C26.498 4.99759 22.7387 6.64818 18.9565 8.26439C18.3966 8.5051 18.1338 8.82605 18.0081 9.45648C17.3797 12.7118 16.7169 15.9672 16.0542 19.2225C16.0085 19.4632 15.8371 19.7956 15.6543 19.8644C14.763 20.2083 13.8603 20.2197 12.9348 19.7612C13.7232 15.9213 14.5916 12.1502 15.2429 8.35609C15.5171 6.78573 16.1228 6.00629 17.4825 5.45609C21.4475 3.85134 25.3553 2.0632 29.286 0.343835C29.5831 0.206286 29.9373 0.378222 30.0402 0.687709L30.6915 2.60194V2.59048Z" stroke="white" stroke-width="0.75" stroke-miterlimit="10"/>
</svg>
