<svg width="60" height="44" viewBox="0 0 60 44" fill="none" xmlns="http://www.w3.org/2000/svg">
<path d="M54.9192 6.64569L55.293 11.0208L4.59622 15.382L4.22243 11.0069C3.97323 8.07174 6.14675 5.4827 9.08168 5.23348L24.5455 3.90434C24.407 2.22908 25.6391 0.761487 27.3143 0.623035L30.4015 0.359977C32.0766 0.221525 33.5441 1.45375 33.6825 3.12901L49.1463 1.79988C52.0812 1.55066 54.67 3.72436 54.9192 6.65954V6.64569ZM57.9788 19.314H55.4453V17.9434H4.55468V19.314H2.02123C1.09368 19.314 0.3461 20.0617 0.3461 20.9893C0.3461 21.9169 1.09368 22.6646 2.02123 22.6646H4.55468V33.8238C4.55468 39.2373 8.94324 43.6262 14.3563 43.6262H45.6437C51.0568 43.6262 55.4453 39.2373 55.4453 33.8238V22.6646H57.9788C58.9063 22.6646 59.6539 21.9169 59.6539 20.9893C59.6539 20.0617 58.9063 19.314 57.9788 19.314V19.314Z" stroke="white" stroke-width="0.5" stroke-miterlimit="10"/>
</svg>
