<svg width="117" height="150" viewBox="0 0 117 150" fill="none" xmlns="http://www.w3.org/2000/svg">
<path d="M62.9566 149.387C67.9106 145.761 73.7224 144.091 79.6977 142.888C83.3089 142.162 86.9709 141.668 90.6103 141.083C90.9827 141.021 91.4961 140.791 91.6823 141.308C91.8685 141.825 91.3212 141.87 90.977 142.061C84.5208 145.696 77.495 148.218 70.1959 149.522C67.7865 149.932 65.5182 150.989 63.1146 151.456C60.0338 152.052 59.1084 154.408 57.6696 157.269C67.352 151.647 77.8696 150.281 88.0429 147.762C86.6041 149.848 84.5051 151.029 82.4569 152.26C77.615 155.156 72.2997 157.181 66.754 158.242C62.9296 158.945 59.2124 160.137 55.6947 161.789C55.0797 162.087 54.4816 162.312 54.1487 162.97C52.6027 166.062 51.0284 169.154 49.2567 172.629C58.0476 167.687 67.1658 165.14 76.7693 163.943C76.9837 164.809 76.6734 164.988 76.3518 165.067C69.372 167.181 62.8099 170.211 56.1574 173.107C54.1562 173.991 52.0031 174.483 49.8153 174.557C49.7626 174.528 49.7034 174.513 49.6432 174.513C49.583 174.513 49.5238 174.528 49.4711 174.557L49.0141 174.585L47.6317 174.231C46.4365 170.69 44.9844 167.24 43.287 163.909C40.093 157.713 38.289 150.899 38 143.939C38.2708 144.136 38.6771 144.276 38.8069 144.541C42.0456 151.085 46.08 157.303 47.9984 164.404C48.4893 166.208 48.8561 168.041 49.3018 169.97C51.4911 167.648 51.4798 165.101 50.6052 162.368C49.6404 159.372 48.1226 156.606 46.7063 153.795C43.6086 147.61 42.8299 141.094 42.7171 134.438C42.7171 134.275 42.8976 134.123 42.9879 133.971C43.8456 134.016 43.7101 134.747 43.8907 135.18C46.1872 140.729 48.4047 146.3 50.7294 151.849C51.7445 154.445 52.2465 157.211 52.2077 159.996C52.2077 161.12 52.298 162.245 52.3657 163.825C53.6973 162.374 54.3011 161.143 54.2728 159.524C54.1656 153.182 52.5293 147.082 50.7745 140.971C49.488 136.523 48.0661 132.104 48.2975 127.438C48.3426 126.46 48.241 125.425 49.347 123.992C51.4629 134.674 56.8797 144.052 57.6188 154.526C58.2272 154.141 58.7109 153.589 59.0113 152.937C59.3117 152.284 59.416 151.559 59.3116 150.849C59.072 147.862 58.3459 144.934 57.1618 142.179C54.4415 135.426 53.2527 128.158 53.6804 120.894C53.765 119.28 53.6465 117.644 53.6183 116.025C54.239 116.059 54.38 116.256 54.4365 116.548C55.7455 123.294 58.2733 129.737 59.9096 136.4C60.9594 140.534 61.3666 144.804 61.1171 149.061C61.7491 149.23 62.2231 150.433 62.9566 149.387Z" fill="#468C9F" fill-opacity="0.5"/>
<path d="M91.4961 95.7234C91.9857 95.3347 92.5693 95.0812 93.1883 94.9884C93.8074 94.8956 94.44 94.9669 95.0226 95.1949L94.9718 96.488C94.0465 101.936 93.2114 107.406 90.7964 113.028C91.589 112.643 92.2045 111.972 92.5174 111.151C96.3263 104.45 101.409 98.5531 107.481 93.7894C107.944 93.4011 108.432 93.0442 108.943 92.7212C109.422 92.4401 109.902 91.6699 110.483 92.159C111.064 92.6481 110.415 93.2834 110.201 93.795C109.216 95.9146 108.001 97.9205 106.578 99.777C103.396 104.067 100.214 108.356 95.9085 111.662C95.79 111.763 95.5587 111.921 95.5756 111.955C95.6997 112.185 95.8408 112.045 95.9706 111.955C100.626 110.959 105.072 109.233 109.806 108.508C112.147 108.154 114.489 107.704 117 107.85C115.172 110.493 100.501 115.21 91.4002 116.194C88.7708 115.384 87.5351 117.239 86.1753 118.96L90.5256 117.762L92.0604 117.504L92.6246 117.431C97.0088 117.105 101.207 115.851 105.54 115.289C108.508 114.906 111.482 114.535 114.664 115.148C114.309 116.317 113.293 116.357 112.571 116.649C106.454 119.145 99.8864 119.679 93.3412 120.32C90.5538 120.596 87.7834 121.057 84.9847 121.271C82.7277 121.439 81.5992 122.89 80.2845 124.61C88.2968 123.66 95.8859 122.069 103.667 121.743C103.771 121.73 103.877 121.739 103.978 121.768C104.079 121.797 104.173 121.846 104.255 121.912C104.336 121.978 104.404 122.06 104.453 122.153C104.502 122.245 104.532 122.347 104.541 122.451C98.0406 125.71 90.9527 127.644 83.6926 128.141C82.186 128.248 80.6852 128.388 79.1786 128.456C76.5549 128.579 74.9129 129.884 74.1004 132.537H74.1625C74.1566 132.474 74.1358 132.412 74.1019 132.358C74.0679 132.304 74.0216 132.258 73.9668 132.225C73.912 132.191 73.8501 132.171 73.7861 132.166C73.7221 132.161 73.6578 132.17 73.5982 132.194L73.6377 132.222C74.2697 130.811 74.8057 129.35 75.8947 128.197C76.2728 127.803 76.0414 127.309 75.8608 126.865C72.6052 118.757 73.2766 110.701 75.4715 102.661C75.7819 101.537 76.1035 100.379 76.6 98.6751C77.5874 101.149 76.7919 103.173 76.9724 105.096C77.1699 107.176 77.2038 109.273 77.4633 111.347C77.7229 113.422 78.1178 115.356 78.5467 117.341C79.0848 119.459 79.3689 121.633 79.393 123.817C81.0858 122.693 82.0224 121.726 81.4469 119.545C79.9577 114.044 80.0575 108.237 81.7346 102.79C82.3723 100.758 82.77 98.6576 82.9196 96.533C83.055 96.0102 83.1904 95.4929 83.3315 94.9701C83.6055 94.8924 83.8951 94.8879 84.1714 94.957C84.4477 95.0261 84.7009 95.1663 84.9057 95.3636C84.9057 95.5379 84.9339 95.7122 84.9509 95.8921C83.9126 103.482 86.4969 111.263 84.3189 118.864C85.7577 117.414 88.2066 116.722 88.3533 114.563C88.7652 108.531 90.4918 102.757 91.1068 96.7635L91.4961 95.7234Z" fill="#468C9F" fill-opacity="0.5"/>
<path d="M67.3915 108.272C67.747 113.332 69.2648 118.212 70.6472 123.103C71.5001 125.883 71.9523 128.77 71.9901 131.677C71.9901 132.537 72.1651 132.976 73.0848 132.425C73.0001 132.773 72.6955 133.218 73.0848 133.454C73.4741 133.69 73.6998 133.212 73.9199 132.942C74.0045 132.802 74.0948 132.667 74.1794 132.532H74.1173L75.8891 132.161L76.0471 132.256L76.2051 132.346C76.1317 133.769 74.3148 134.196 74.2923 135.652C71.4146 135.697 69.7783 137.299 68.6837 140.15C76.5831 136.574 84.8888 135.551 93.2058 134.454C93.3017 135.219 92.9293 135.315 92.6415 135.455C86.717 138.441 80.7416 141.263 73.9594 142.129C71.1762 142.4 68.4331 142.986 65.7834 143.877L65.1458 143.456C65.3828 142.489 64.7227 141.769 64.2882 141.044C59.4808 132.97 57.0941 124.402 58.0081 115.142C58.0841 115 58.2007 114.882 58.3432 114.805C58.4857 114.728 58.6479 114.695 58.8094 114.709L58.9279 115.227C59.9999 120.416 61.9296 125.347 63.7014 130.356C64.983 133.864 65.8687 137.503 66.342 141.207C67.9614 139.582 68.7852 137.895 69.8855 136.411C70.32 135.821 70.1394 135.287 69.8234 134.724C65.0386 126.072 64.717 117.037 66.6467 107.805L67.3915 108.272Z" fill="#468C9F" fill-opacity="0.5"/>
<path d="M74.3148 135.669C74.3148 134.213 76.1543 133.785 76.2276 132.363L76.38 132.279L76.2276 132.357L76.0696 132.267L75.9116 132.172C78.8457 130.705 82.0901 130.238 85.3007 129.687C89.5269 128.956 93.7926 128.394 97.8664 127.061C98.2332 126.943 98.679 126.612 98.9667 127.061C99.2545 127.511 98.7636 127.888 98.4363 128.186C97.4377 129.109 96.211 129.751 94.8816 130.047C88.6749 131.492 82.756 133.926 76.538 135.399C75.8033 135.535 75.0608 135.625 74.3148 135.669Z" fill="#468C9F" fill-opacity="0.5"/>
<path d="M47.6542 174.276L49.0366 174.63C47.7953 175.35 47.626 176.705 47.2649 177.88C46.3339 180.882 45.5722 183.929 44.6637 186.943C44.433 187.71 44.113 188.448 43.7102 189.141C43.6279 189.331 43.505 189.501 43.35 189.639C43.1951 189.777 43.0118 189.879 42.813 189.939C42.6142 189.999 42.4047 190.015 42.1991 189.986C41.9935 189.957 41.7967 189.884 41.6224 189.771C40.5504 189.147 41.3121 188.45 41.7466 187.949C44.0036 185.352 45.2167 182.327 45.9107 178.954C46.2415 177.313 46.8299 175.734 47.6542 174.276Z" fill="#468C9F" fill-opacity="0.5"/>
<path d="M62.9566 149.387C62.2231 150.433 61.7491 149.23 61.1454 149.134L62.3303 147.914L62.9397 148.229C63.0299 148.617 62.4093 148.993 62.9566 149.387Z" fill="#468C9F" fill-opacity="0.5"/>
<path d="M65.1515 143.489L65.7891 143.911L64.1923 146.289L63.628 145.884L65.1515 143.489Z" fill="#468C9F" fill-opacity="0.5"/>
<path d="M73.9199 132.942C73.6998 133.212 73.508 133.712 73.0848 133.454C72.6616 133.195 73.0001 132.773 73.0848 132.425L73.6491 132.217L73.6096 132.189L73.9199 132.942Z" fill="#468C9F" fill-opacity="0.5"/>
<path d="M63.6224 145.884L64.1866 146.289L62.934 148.229L62.3246 147.914L63.6224 145.884Z" fill="#468C9F" fill-opacity="0.5"/>
<path d="M49.488 174.602C49.5407 174.573 49.5999 174.558 49.6601 174.558C49.7203 174.558 49.7795 174.573 49.8322 174.602H49.488Z" fill="#468C9F" fill-opacity="0.5"/>
<path d="M73.9199 132.942L73.6039 132.189C73.6634 132.165 73.7278 132.155 73.7918 132.16C73.8558 132.166 73.9177 132.186 73.9725 132.219C74.0273 132.252 74.0735 132.298 74.1075 132.352C74.1415 132.407 74.1622 132.468 74.1681 132.532L73.9199 132.942Z" fill="#468C9F" fill-opacity="0.5"/>
<path d="M76.205 132.357L76.3574 132.279L76.205 132.363V132.357Z" fill="#468C9F" fill-opacity="0.5"/>
<path d="M28.1095 -32.3495C25.6323 -26.732 21.4341 -22.3801 16.8609 -18.3505C14.0961 -15.9168 11.1722 -13.6573 8.31272 -11.3313C8.02113 -11.0915 7.69171 -10.6352 7.27184 -10.99C6.85197 -11.3448 7.30347 -11.6575 7.50597 -11.9951C11.2799 -18.3709 16.1032 -24.0682 21.7727 -28.8467C23.654 -30.4068 25.0899 -32.4563 26.9382 -34.0623C29.3083 -36.1188 28.9318 -38.6216 28.7471 -41.8193C23.1729 -32.1091 14.7475 -25.6672 7.19653 -18.3992C7.39968 -20.925 8.62713 -22.997 9.7853 -25.0874C12.5306 -30.0162 16.1213 -34.4274 20.3935 -38.1194C23.354 -40.6403 25.977 -43.5316 28.1972 -46.7213C28.5809 -47.2869 28.9864 -47.7807 28.9458 -48.5168C28.7386 -51.9677 28.5559 -55.4328 28.353 -59.3276C23.2107 -50.6524 16.5876 -43.8876 8.86947 -38.0488C8.25088 -38.6914 8.4297 -39.0024 8.66887 -39.2314C13.6565 -44.552 17.8243 -50.4574 22.1378 -56.2911C23.4289 -58.0573 25.0474 -59.5603 26.905 -60.7184C26.9652 -60.7196 27.0241 -60.736 27.0762 -60.7661C27.1283 -60.7962 27.172 -60.839 27.2031 -60.8905L27.5849 -61.1433L28.9591 -61.5278C31.7648 -59.0586 34.7472 -56.797 37.8829 -54.7608C43.7471 -50.9917 48.7163 -45.9926 52.4465 -40.1098C52.1136 -40.1448 51.6915 -40.0634 51.447 -40.2274C45.37 -44.2754 38.7671 -47.6433 33.5553 -52.8335C32.2278 -54.151 30.9938 -55.5549 29.6435 -57.0021C28.9085 -53.8966 30.1917 -51.6966 32.3153 -49.7676C34.6492 -47.6549 37.3468 -46.0183 39.9788 -44.2919C45.7537 -40.4849 49.6861 -35.2312 53.1121 -29.5228C53.1936 -29.3816 53.1132 -29.1598 53.1109 -28.9832C52.3456 -28.5934 52.0975 -29.294 51.7247 -29.5787C46.9613 -33.2361 42.2551 -36.9524 37.4674 -40.5957C35.2906 -42.3356 33.4727 -44.4803 32.1138 -46.9116C31.5516 -47.8854 30.9112 -48.8141 30.0627 -50.1484C29.6347 -48.2264 29.7275 -46.8582 30.5615 -45.4701C33.8252 -40.0315 38.2924 -35.5669 42.8677 -31.1518C46.2054 -27.9437 49.6463 -24.8277 51.7791 -20.6708C52.2292 -19.801 52.8344 -18.9559 52.5935 -17.1614C45.42 -25.3544 36.04 -30.7674 30.1629 -39.4686C29.8282 -38.8314 29.6853 -38.1117 29.7514 -37.3964C29.8175 -36.6811 30.0898 -36.0009 30.5353 -35.438C32.2362 -32.971 34.3291 -30.7982 36.7318 -29.005C42.4641 -24.5169 47.1279 -18.8166 50.3895 -12.3119C51.123 -10.8722 52.0436 -9.51456 52.8777 -8.12642C52.3233 -7.8453 52.1027 -7.94519 51.9077 -8.17016C47.4007 -13.3584 41.9901 -17.6742 37.2419 -22.6258C34.2657 -25.6811 31.7781 -29.1754 29.8656 -32.9869C29.234 -32.817 28.2219 -33.6219 28.1095 -32.3495Z" fill="#468C9F" fill-opacity="0.5"/>
<path d="M30.2253 28.3942C29.9958 28.9757 29.6171 29.487 29.1274 29.8769C28.6376 30.2667 28.0541 30.5213 27.4355 30.6151L26.833 29.4699C24.9104 24.2892 22.8984 19.1342 22.1788 13.0578C21.6849 13.7874 21.4876 14.6767 21.6273 15.5445C21.679 23.2518 20.2258 30.9 17.3489 38.0616C17.1425 38.6292 16.8981 39.1824 16.6174 39.7174C16.3426 40.2007 16.3123 41.1075 15.5645 40.9745C14.8166 40.8415 15.0609 39.9669 14.9908 39.4166C14.7841 37.0885 14.8331 34.7439 15.1369 32.4248C15.7481 27.1187 16.3592 21.8125 18.4347 16.797C18.4867 16.6501 18.6083 16.3981 18.5768 16.3773C18.3541 16.2398 18.3022 16.432 18.2348 16.5748C14.7009 19.7641 11.7134 23.482 7.97623 26.4771C6.12542 27.9547 4.32241 29.515 2.07483 30.6439C2.33685 27.4414 12.6833 16.0212 20.0733 10.6185C22.7552 10.0049 22.8977 7.78028 23.2151 5.61047L20.0464 8.82273L18.8466 9.81408L18.3945 10.1595C14.7607 12.634 11.752 15.8188 8.28027 18.4724C5.90111 20.2874 3.51145 22.0955 0.449054 23.156C0.172194 21.9655 1.0321 21.4236 1.51139 20.8093C5.56025 15.5893 10.9811 11.8428 16.329 8.01515C18.6052 6.38289 20.7739 4.59842 23.0908 3.01407C24.9611 1.73951 25.2132 -0.0809245 25.4915 -2.22816C19.0278 2.60083 13.2509 7.77329 6.67547 11.9462C6.59128 12.0091 6.49532 12.0546 6.39328 12.0799C6.29124 12.1052 6.18523 12.1097 6.08153 12.0933C5.97783 12.0769 5.87855 12.0398 5.78962 11.9842C5.70069 11.9287 5.62392 11.8558 5.56386 11.77C9.56443 5.69737 14.7356 0.478327 20.7747 -3.58183C22.026 -4.4276 23.2555 -5.29978 24.5265 -6.11147C26.7369 -7.53046 27.5067 -9.48103 26.8835 -12.1854L26.8298 -12.1544C26.8667 -12.1022 26.9154 -12.0593 26.972 -12.0293C27.0286 -11.9992 27.0914 -11.9828 27.1556 -11.9814C27.2197 -11.98 27.2833 -11.9935 27.3414 -12.021C27.3994 -12.0484 27.4503 -12.089 27.4899 -12.1395L27.4416 -12.1441C27.5999 -10.606 27.8666 -9.07209 27.4998 -7.52946C27.3691 -6.99961 27.8169 -6.68682 28.1953 -6.39245C35.0684 -0.999298 38.5152 6.31361 40.6342 14.3736C40.9276 15.5026 41.2282 16.6664 41.6499 18.39C39.5579 16.7413 39.2349 14.5907 38.1172 13.0158C36.906 11.3131 35.8282 9.51389 34.5661 7.84703C33.304 6.18017 31.995 4.70275 30.6313 3.19843C29.1063 1.63325 27.7732 -0.107512 26.6599 -1.9874C25.7562 -0.167241 25.4285 1.13854 27.0177 2.73992C31.0575 6.75872 33.8748 11.838 35.1455 17.3932C35.6097 19.4726 36.3153 21.49 37.248 23.4048C37.3922 23.9253 37.5335 24.441 37.6728 24.9643C37.4743 25.1686 37.2257 25.3173 36.9519 25.3956C36.6781 25.474 36.3887 25.4791 36.1127 25.4106C36.0256 25.2597 35.914 25.1228 35.8094 24.9755C32.9135 17.8833 26.785 12.4369 24.8706 4.76508C24.3498 6.74067 22.5748 8.56396 23.5272 10.507C26.1868 15.9373 27.5785 21.801 30.0425 27.2988L30.2253 28.3942Z" fill="#468C9F" fill-opacity="0.5"/>
<path d="M44.8262 5.47446C41.9883 1.27016 38.2339 -2.19717 34.591 -5.74194C32.4623 -7.72316 30.6274 -9.99711 29.1411 -12.4956C28.711 -13.2406 28.3403 -13.5329 27.8193 -12.5959C27.7183 -12.9401 27.7601 -13.477 27.3049 -13.4869C26.8496 -13.4967 26.8931 -12.97 26.8375 -12.6263C26.8344 -12.4622 26.8237 -12.3002 26.8179 -12.1411L26.8716 -12.1721L25.5228 -10.9649L25.3382 -10.9687L25.1564 -10.9676C24.5087 -12.2361 25.8685 -13.5145 25.16 -14.7869C27.6297 -16.2647 28.2456 -18.4705 27.7683 -21.4863C22.7151 -14.44 16.0337 -9.40098 9.37918 -4.29305C8.91381 -4.90726 9.18853 -5.17624 9.36747 -5.44184C13.0056 -10.9895 16.7693 -16.4214 22.21 -20.5624C24.4848 -22.1886 26.5671 -24.0682 28.4163 -26.1645L29.1793 -26.1182C29.4575 -25.1622 30.3891 -24.8691 31.128 -24.4582C39.328 -19.8701 45.6791 -13.6433 49.5173 -5.16708C49.5229 -5.0055 49.4805 -4.84573 49.3956 -4.70778C49.3107 -4.56983 49.1869 -4.45983 49.0399 -4.39157L48.6786 -4.78025C45.1556 -8.73824 41.0191 -12.0434 36.98 -15.4958C34.1161 -17.8931 31.5294 -20.602 29.2678 -23.5725C28.6777 -21.3557 28.8076 -19.4831 28.5969 -17.6476C28.5158 -16.9191 28.9392 -16.5468 29.494 -16.2179C37.964 -11.117 42.7599 -3.45347 45.7045 5.50617L44.8262 5.47446Z" fill="#468C9F" fill-opacity="0.5"/>
<path d="M25.132 -14.7902C25.8601 -13.5292 24.4807 -12.2394 25.1284 -10.9709L25.0387 -10.8217L25.1312 -10.966L25.313 -10.9671L25.4976 -10.9633C23.6904 -8.2255 21.1139 -6.19917 18.609 -4.11673C15.3144 -1.37067 11.9013 1.24907 9.03951 4.43993C8.78091 4.72556 8.56073 5.23571 8.08663 4.99008C7.61253 4.74445 7.84932 4.17278 7.98375 3.7511C8.38706 2.45242 9.12833 1.2829 10.1318 0.362114C14.7845 -3.99256 18.6932 -9.06028 23.3417 -13.4449C23.91 -13.93 24.5079 -14.3793 25.132 -14.7902Z" fill="#468C9F" fill-opacity="0.5"/>
<path d="M28.9171 -61.5555L27.5428 -61.171C28.258 -62.4149 27.7272 -63.673 27.4524 -64.8711C26.7575 -67.9366 25.8936 -70.9565 25.1736 -74.0204C24.9898 -74.8003 24.8981 -75.5992 24.9003 -76.401C24.8765 -76.6067 24.8981 -76.8152 24.9634 -77.012C25.0287 -77.2088 25.1361 -77.3892 25.2783 -77.5405C25.4205 -77.6918 25.5939 -77.8104 25.7865 -77.8881C25.9791 -77.9657 26.1863 -78.0006 26.3935 -77.9901C27.6339 -77.9857 27.3228 -77.0011 27.1967 -76.3505C26.5409 -72.9726 27.0026 -69.7465 28.0882 -66.4782C28.6222 -64.8918 28.902 -63.2305 28.9171 -61.5555Z" fill="#468C9F" fill-opacity="0.5"/>
<path d="M28.1095 -32.3495C28.2219 -33.6219 29.2339 -32.8169 29.8046 -33.036L29.3884 -31.387L28.7033 -31.355C28.4311 -31.6458 28.7803 -32.2824 28.1095 -32.3495Z" fill="#468C9F" fill-opacity="0.5"/>
<path d="M29.1575 -26.1446L28.3945 -26.1909L28.5883 -29.0489L29.2794 -28.9805L29.1575 -26.1446Z" fill="#468C9F" fill-opacity="0.5"/>
<path d="M26.8375 -12.6263C26.8931 -12.97 26.8091 -13.4993 27.3049 -13.4869C27.8007 -13.4745 27.7183 -12.9401 27.8193 -12.5959L27.4346 -12.1336L27.4829 -12.129L26.8375 -12.6263Z" fill="#468C9F" fill-opacity="0.5"/>
<path d="M29.2842 -28.9833L28.5932 -29.0517L28.7082 -31.3578L29.3933 -31.3899L29.2842 -28.9833Z" fill="#468C9F" fill-opacity="0.5"/>
<path d="M27.166 -60.921C27.1349 -60.8695 27.0912 -60.8267 27.0391 -60.7966C26.9869 -60.7665 26.928 -60.7501 26.8679 -60.7489L27.166 -60.921Z" fill="#468C9F" fill-opacity="0.5"/>
<path d="M26.8375 -12.6263L27.4878 -12.1318C27.4482 -12.0813 27.3973 -12.0407 27.3393 -12.0133C27.2812 -11.9858 27.2176 -11.9723 27.1535 -11.9737C27.0893 -11.9752 27.0265 -11.9916 26.9699 -12.0216C26.9133 -12.0516 26.8646 -12.0945 26.8277 -12.1467L26.8375 -12.6263Z" fill="#468C9F" fill-opacity="0.5"/>
<path d="M25.1508 -10.9773L25.0582 -10.833L25.148 -10.9822L25.1508 -10.9773Z" fill="#468C9F" fill-opacity="0.5"/>
</svg>
