<svg width="147" height="122" viewBox="0 0 147 122" fill="none" xmlns="http://www.w3.org/2000/svg">
<path d="M82.3468 99.5647C82.298 98.597 82.9643 97.9684 83.4428 97.2527C84.0533 97.2626 84.6585 97.5265 85.2646 97.2644C91.4252 97.8779 97.1074 99.6998 101.858 103.88C102.065 104.09 102.327 104.236 102.614 104.302C102.901 104.369 103.201 104.351 103.478 104.253C104.488 103.928 105.503 103.62 106.803 103.209C105.844 102.411 104.865 102.173 103.983 101.83C99.7088 100.177 95.5701 98.2954 92.3364 94.9113C91.567 94.1046 90.3867 93.1891 91.1512 92.0287C91.8617 90.9476 93.2635 91.3752 94.3105 91.7651C99.9398 93.8503 105.162 96.5702 108.937 101.453C109.256 101.861 109.508 102.438 110.192 102.292C112.236 101.89 114.258 101.381 116.248 100.769C113.142 99.1531 110.12 97.6426 107.259 95.8226C104.686 94.1761 101.817 93.0314 99.422 91.0991C98.3921 90.2692 96.9407 89.2621 97.6285 87.973C98.2105 86.9099 99.8162 87.6484 100.936 87.9451C103.551 88.6377 105.645 90.2902 107.779 91.8234C111.087 94.2003 114.389 96.5929 117.293 99.4756C118.192 100.369 121.151 100.617 122.058 99.8128C122.815 99.1397 121.896 98.953 121.54 98.7356C118.739 97.0126 115.897 95.3417 113.102 93.607C111.269 92.4914 109.412 91.372 107.978 89.7038C107.308 88.9291 106.39 88.1121 106.964 87.0436C107.612 85.8528 108.884 86.3023 109.899 86.5495C113.035 87.3094 115.447 89.2986 117.748 91.4126C119.989 93.4065 121.95 95.6925 123.578 98.2086C124.162 99.1329 124.754 99.5618 125.891 99.2849C127.158 98.9779 128.473 98.8454 129.963 98.6184C129.18 97.4882 128.205 96.8463 127.293 96.1514C124.045 93.6835 120.862 91.1421 118.336 87.8998C117.729 87.0843 117.174 86.2324 116.672 85.3489C116.391 84.8883 116.2 84.2997 116.626 83.8431C117.053 83.3865 117.728 83.4397 118.296 83.7271C119.921 84.6149 121.464 85.6461 122.905 86.8083C124.052 87.9303 125.199 89.0523 126.347 90.1742C128.202 92.3353 129.809 94.6959 131.138 97.2119C131.379 97.6662 131.516 98.3553 132.174 98.3056C134.547 98.1096 136.915 97.8417 139.286 97.6036L139.254 97.2105C135.083 94.6847 130.91 92.1601 126.735 89.6367C125.8 88.0239 124.193 87.0765 122.955 85.743C122.704 85.3359 122.48 84.9125 122.285 84.4757C121.931 83.4738 122.4 82.9862 123.391 82.9751C124.241 83.0057 125.069 83.2518 125.797 83.69C130.966 86.2848 135.477 90.0132 138.992 94.5945C141.482 97.7729 144.219 97.3361 147.655 96.8811C145.331 95.0015 142.948 93.7598 140.731 92.2723C137.941 90.4006 135.142 88.5276 133.232 85.6717C132.816 85.0486 132.139 84.3229 132.737 83.5669C133.392 82.7363 134.307 83.1937 135.043 83.561C140.354 86.1298 144.928 89.9939 148.339 94.7941C149.518 96.4608 150.668 97.1337 152.597 96.7234C153.221 96.5894 153.894 96.6841 154.698 96.3313C153.333 95.4751 151.963 94.6224 150.598 93.7581C147.925 92.0545 145.315 90.2063 143.26 87.7499C142.554 86.8861 141.22 85.7425 142.021 84.6963C142.676 83.8446 144.189 84.6107 145.2 85.0452C150.112 87.0498 153.844 90.6312 157.079 94.6668C158.341 96.2503 159.62 96.7927 161.479 96.593C162.298 96.4972 163.132 96.5539 164.032 96.5372C163.648 95.7019 162.883 95.5555 162.285 95.2176C159.336 93.5554 156.578 91.6636 154.515 88.9305C153.957 88.1938 153.003 87.3087 153.777 86.4168C154.498 85.5921 155.594 86.24 156.438 86.6406C160.256 88.4777 163.239 91.3391 165.813 94.5931C167.015 96.1089 168.268 96.7683 170.196 96.6627C172.961 96.5099 175.695 96.9703 178.389 97.6124C178.793 97.7077 179.544 97.6766 179.385 98.3578C179.227 99.039 178.598 98.6547 178.192 98.5424C175.322 97.815 172.395 97.6883 169.453 97.5467C168.829 97.4833 168.201 97.5906 167.635 97.8571C167.069 98.1236 166.587 98.5391 166.241 99.0588C165.287 100.361 164.366 101.694 163.337 102.935C162.071 104.47 160.628 105.793 158.551 106.21C156.99 106.522 156.681 106.27 157.077 104.699C157.72 102.142 159.712 100.66 161.651 99.1368C162.194 98.7106 162.94 98.5201 163.347 97.6681C161.801 97.4889 160.24 97.4766 158.691 97.6315C157.927 97.6941 157.628 98.333 157.264 98.8783C155.412 101.663 153.56 104.452 151.138 106.799C150.059 107.849 148.916 108.822 147.454 109.283C146.741 109.508 145.882 109.998 145.271 109.304C144.761 108.72 145.171 107.932 145.419 107.268C146.426 104.583 148.402 102.682 150.648 101.043C152.121 99.9696 153.665 98.9995 155.282 97.9111C150.658 97.0402 149.349 97.6165 147.083 101.415C145.221 104.537 143.636 107.88 140.497 110.009C139.463 110.715 138.358 112.232 137.098 111.158C135.929 110.169 137.187 108.792 137.706 107.757C139.465 104.269 142.493 101.848 145.434 99.3966C145.84 99.0414 146.356 98.849 146.528 98.2741C142.891 97.3874 140.713 98.3356 138.959 101.465C136.979 105.007 135.387 108.776 132.852 111.999C132.086 113.077 131.038 113.927 129.822 114.457C128.69 114.898 127.982 114.839 128.162 113.255C128.606 109.395 130.715 106.495 133.408 103.934C135.207 102.231 137.115 100.64 139.258 98.7433C137.001 98.6645 134.742 98.8656 132.535 99.342C131.239 99.5944 130.916 100.827 130.55 101.902C129.457 105.125 128.682 108.463 126.931 111.434C126.096 112.885 125.099 114.236 123.959 115.463C123.524 115.923 122.994 116.288 122.379 115.981C121.763 115.674 121.904 115.032 121.956 114.526C122.241 111.543 123.482 108.915 124.986 106.369C126.446 103.995 128.171 101.795 130.128 99.8085C128.328 99.7124 126.852 100.096 125.366 100.332C124.627 100.448 124.53 101.11 124.325 101.654C123.002 105.117 121.7 108.584 120.375 112.038C119.516 114.282 118.524 116.46 116.796 118.191C116.272 118.712 115.655 119.565 114.861 119.168C114.168 118.819 114.47 117.855 114.545 117.178C115.081 112.279 117.297 108.076 120.093 104.133C120.803 103.136 121.581 102.186 122.387 101.145C119.284 100.874 118.608 101.18 117.537 103.717C116.254 106.806 115.134 109.962 113.931 113.084C113.362 114.726 112.496 116.251 111.377 117.582C110.795 118.232 110.132 119.195 109.195 118.88C108.19 118.543 108.432 117.344 108.443 116.511C108.507 113.356 109.839 110.621 111.471 108.011C112.742 106.041 114.186 104.187 115.786 102.472C112.81 101.895 110.309 103.282 109.29 105.882C107.66 110.041 106.478 114.419 103.6 117.995C103.036 118.693 102.439 119.361 101.82 120.01C101.201 120.658 100.412 121.13 99.5858 120.611C98.7598 120.092 98.9886 119.201 99.2591 118.474C100.935 113.988 102.721 109.552 105.862 105.825C106.195 105.462 106.465 105.046 106.658 104.594C104.718 104.969 102.727 104.86 101.326 106.867C98.6448 110.685 96.7265 115.001 93.6103 118.515C92.83 119.424 91.9293 120.223 90.9327 120.889C90.2487 121.332 89.4424 121.889 88.6326 121.209C87.9157 120.607 88.2218 119.786 88.4621 119.037C89.2879 116.397 90.8241 114.033 92.9041 112.203C93.9324 111.292 94.9856 110.409 96.0283 109.512C97.3112 108.792 98.4231 107.804 99.2887 106.618C97.7646 107.344 96.5981 107.763 95.7715 108.726C95.6122 108.835 95.4489 108.944 95.2994 109.071C95.2587 109.044 95.2116 109.027 95.1626 109.022C95.1136 109.018 95.0643 109.026 95.0193 109.046C94.9743 109.066 94.9352 109.097 94.9055 109.136C94.8759 109.175 94.8567 109.221 94.8498 109.269C91.656 111.264 88.5285 113.374 85.0787 114.933C84.9169 115.004 84.7658 115.115 84.5976 115.173C83.4543 115.549 82.1447 116.655 81.1567 115.414C80.2278 114.253 81.6695 113.434 82.264 112.536C82.3407 112.377 82.3974 112.209 82.4328 112.036C81.6442 111.71 81.0104 112.235 80.3297 112.273C79.3076 112.35 77.9898 113.017 77.4466 111.719C76.8477 110.291 78.2381 109.753 79.2068 109.258C82.3613 107.661 85.7344 106.533 89.2185 105.911C91.9259 105.37 94.7017 105.253 97.4463 105.563C98.3764 105.676 99.3755 105.858 100.245 104.969C99.5061 104.321 98.5465 104.291 97.6756 104.12C94.2825 103.392 90.774 103.281 87.4529 102.138C85.6201 101.567 83.8947 100.697 82.3468 99.5647Z" fill="#868032" fill-opacity="0.6"/>
<path d="M48.8577 17.9213C49.1185 17.2162 48.7711 16.5961 48.583 15.9551C48.1287 15.8207 47.6194 15.8755 47.2315 15.5408C42.5278 14.5647 37.8978 14.5944 33.4098 16.5862C33.2084 16.6937 32.9803 16.7414 32.7524 16.7237C32.5245 16.7061 32.3064 16.6237 32.1239 16.4865C31.4518 16.011 30.7714 15.5473 29.9046 14.9416C30.8002 14.5734 31.5795 14.6247 32.3125 14.5749C35.8609 14.344 39.362 13.9115 42.5419 12.1567C43.2989 11.7381 44.3853 11.3343 44.0887 10.2976C43.8136 9.33229 42.6765 9.32339 41.8108 9.369C37.1588 9.60587 32.6611 10.4073 28.7321 13.1456C28.4012 13.3735 28.0813 13.7424 27.6082 13.4756C26.1881 12.7033 24.8095 11.8575 23.478 10.9417C26.153 10.4669 28.7409 10.0501 31.2819 9.36687C33.5694 8.7453 35.9587 8.56367 38.1809 7.68914C39.1362 7.31385 40.4446 6.90518 40.2346 5.79106C40.0505 4.86879 38.6902 5.04277 37.7921 5.00244C35.6955 4.90818 33.7611 5.64536 31.8253 6.28516C28.824 7.27688 25.824 8.28175 23.0047 9.7419C22.1319 10.1946 19.8832 9.69157 19.3984 8.88523C18.9942 8.21108 19.7178 8.28624 20.0323 8.20806C22.5059 7.58257 24.998 7.00529 27.4699 6.36982C29.086 5.96939 30.7212 5.57188 32.1702 4.66967C32.8458 4.25155 33.7157 3.85996 33.5385 2.93551C33.3354 1.90344 32.2888 1.9408 31.4804 1.88829C28.9816 1.72272 26.734 2.63548 24.5399 3.66657C22.4175 4.62244 20.4347 5.85964 18.6455 7.34459C17.9987 7.89345 17.4605 8.07342 16.6833 7.60457C15.8166 7.08313 14.8732 6.67954 13.8232 6.16567C14.6651 5.51064 15.536 5.26173 16.3727 4.95901C19.3507 3.88597 22.297 2.74329 24.92 0.929146C25.5585 0.466239 26.1676 -0.0355217 26.7439 -0.573273C27.0594 -0.848916 27.3373 -1.24045 27.1277 -1.67747C26.9181 -2.11448 26.4059 -2.23178 25.9186 -2.1509C24.5089 -1.87102 23.1274 -1.46565 21.7908 -0.939694C20.6808 -0.375373 19.5709 0.188944 18.4609 0.753263C16.5857 1.9226 14.8478 3.2972 13.2795 4.85145C12.9959 5.13196 12.734 5.61017 12.2588 5.42079C10.5471 4.72462 8.85635 3.97659 7.15584 3.24974L7.27084 2.96608C10.9457 2.06454 14.6215 1.16422 18.2982 0.265114C19.3651 -0.71181 20.775 -1.04015 22.0011 -1.74002C22.2817 -1.98314 22.5456 -2.24468 22.7911 -2.52287C23.2856 -3.18249 23.0518 -3.65238 22.3207 -3.89067C21.6845 -4.06526 21.0143 -4.07533 20.3735 -3.91993C15.9442 -3.1988 11.7381 -1.48581 8.07203 1.09004C5.49075 2.86522 3.56555 1.90636 1.12729 0.771763C3.28425 -0.0803658 5.33747 -0.446267 7.32367 -1.03299C9.8242 -1.77097 12.3311 -2.50796 14.4085 -4.17889C14.8612 -4.54366 15.5309 -4.9238 15.2638 -5.6223C14.9714 -6.38946 14.1877 -6.26326 13.5574 -6.16215C9.02904 -5.4933 4.74548 -3.69423 1.10522 -0.932313C-0.154278 0.0280752 -1.16226 0.25923 -2.49468 -0.492247C-2.9257 -0.736409 -3.44596 -0.822547 -3.95962 -1.27049C-2.74987 -1.58737 -1.53741 -1.9006 -0.326679 -2.22381C2.04834 -2.86438 4.40952 -3.62693 6.50154 -4.96844C7.22491 -5.44402 8.47812 -5.98099 8.12755 -6.94171C7.84076 -7.72421 6.54238 -7.50837 5.6931 -7.42137C1.59077 -7.07767 -2.00367 -5.2924 -5.33547 -3.05551C-6.63785 -2.1762 -7.71101 -2.07164 -9.04052 -2.65098C-9.62506 -2.91217 -10.2557 -3.06379 -10.9179 -3.28504C-10.44 -3.8144 -9.83908 -3.74508 -9.31785 -3.8564C-6.74911 -4.40252 -4.26791 -5.16289 -2.10577 -6.70746C-1.52164 -7.12337 -0.609516 -7.55709 -0.975327 -8.39704C-1.31808 -9.17515 -2.27962 -8.94984 -2.99763 -8.84922C-6.25136 -8.37558 -9.12399 -6.94952 -11.7856 -5.13805C-13.0272 -4.29478 -14.1081 -4.09746 -15.5108 -4.62323C-17.5225 -5.37829 -19.6536 -5.67219 -21.797 -5.8222C-22.1187 -5.84554 -22.6675 -6.04295 -22.7081 -5.5017C-22.7487 -4.96046 -22.194 -5.09904 -21.8672 -5.08788C-19.574 -4.96028 -17.377 -4.37445 -15.1658 -3.79617C-14.6896 -3.69843 -14.2491 -3.47302 -13.8919 -3.14429C-13.5346 -2.81556 -13.2742 -2.39599 -13.1387 -1.93087C-12.7348 -0.744943 -12.3624 0.455596 -11.8891 1.61327C-11.3078 3.04338 -10.5464 4.35856 -9.10612 5.14922C-8.02274 5.74271 -7.7352 5.628 -7.66331 4.37239C-7.54577 2.33012 -8.67639 0.770531 -9.75864 -0.807566C-10.0618 -1.2492 -10.5699 -1.56347 -10.6736 -2.28877C-9.48707 -2.06246 -8.32844 -1.7091 -7.21785 -1.23487C-6.66661 -1.01117 -6.59353 -0.46871 -6.45037 0.0196857C-5.72597 2.51158 -5.00206 5.00664 -3.75385 7.30662C-3.19884 8.33427 -2.57887 9.32003 -1.60317 10.0007C-1.12706 10.3327 -0.604935 10.8954 0.00833893 10.5228C0.521473 10.2094 0.401043 9.53011 0.371222 8.98132C0.249463 6.75987 -0.772314 4.893 -2.05497 3.15788C-2.89586 2.02167 -3.81416 0.944875 -4.75876 -0.236371C-1.13253 0.19252 -0.297793 0.92286 0.498623 4.26155C1.15198 7.00496 1.54932 9.84846 3.37903 12.1533C3.98111 12.916 4.4464 14.296 5.62927 13.7936C6.72444 13.3328 6.11209 12.021 5.96816 11.1341C5.47628 8.14326 3.79615 5.64757 2.18788 3.14992C1.96937 2.79252 1.63219 2.53033 1.63841 2.06481C4.53714 2.25273 5.92982 3.46047 6.50151 6.1849C7.1453 9.26698 7.44871 12.4265 8.57731 15.4014C8.89457 16.3781 9.47278 17.2505 10.2499 17.9251C10.9859 18.514 11.5236 18.6352 11.7583 17.4207C12.3256 14.4593 11.438 11.8225 10.0382 9.30175C9.1015 7.62284 8.0583 6.00214 6.91182 4.09998C8.60173 4.56585 10.2272 5.23911 11.7508 6.10428C12.652 6.59211 12.6049 7.5794 12.6261 8.46053C12.6871 11.1003 12.486 13.7517 13.092 16.3583C13.3738 17.626 13.7984 18.8581 14.3577 20.0313C14.5731 20.4724 14.8804 20.8661 15.4073 20.7815C15.9342 20.697 15.9795 20.1889 16.0582 19.8025C16.5398 17.5276 16.2313 15.2938 15.7082 13.0595C15.1786 10.9633 14.4124 8.9333 13.4242 7.00838C14.7795 7.3552 15.783 7.9818 16.8289 8.50152C17.3489 8.75931 17.2672 9.27158 17.2925 9.72249C17.4677 12.5935 17.627 15.4621 17.8063 18.3273C17.9215 20.1882 18.15 22.0308 19.0276 23.7136C19.2947 24.221 19.5534 24.9959 20.2337 24.8863C20.8276 24.7893 20.8273 24.0054 20.9295 23.4865C21.6697 19.7352 21.0052 16.109 19.8504 12.5405C19.5561 11.637 19.2002 10.7532 18.846 9.79515C21.2059 10.3152 21.6352 10.6984 21.8397 12.8256C22.0717 15.4106 22.1685 18.0072 22.3345 20.5983C22.3746 21.9461 22.6616 23.2756 23.1813 24.5213C23.4611 25.1375 23.7284 26.0045 24.4952 25.9891C25.3174 25.9724 25.4164 25.0287 25.6023 24.4093C26.2875 22.0587 25.9358 19.7243 25.3334 17.4131C24.8504 15.6593 24.2116 13.9516 23.4246 12.3103C25.762 12.5742 27.2918 14.182 27.4424 16.343C27.6838 19.8008 27.5424 23.3166 28.8432 26.6321C29.0986 27.2802 29.3854 27.9137 29.6932 28.5375C30.0011 29.1612 30.4757 29.6939 31.2078 29.5015C31.9399 29.3091 31.9775 28.5957 31.9459 27.9948C31.7464 24.2843 31.454 20.5854 29.9943 17.0966C29.8312 16.751 29.7285 16.3803 29.6904 16.0005C31.0394 16.7286 32.5391 17.1105 33.1108 18.9214C34.209 22.371 34.6274 26.0114 36.1187 29.3367C36.4854 30.1907 36.9669 30.9913 37.5499 31.7165C37.9536 32.2027 38.4212 32.8023 39.1786 32.4874C39.8492 32.2079 39.8133 31.5286 39.8091 30.9189C39.8106 28.7723 39.222 26.6656 38.107 24.8273C37.5573 23.9139 36.9824 23.016 36.4185 22.1101C35.636 21.2786 35.042 20.2895 34.6767 19.2097C35.6363 20.1017 36.4029 20.6823 36.7913 21.5873C36.8839 21.7051 36.9796 21.8234 37.0607 21.9525C37.0972 21.9416 37.136 21.9401 37.1733 21.9483C37.2106 21.9564 37.2452 21.9739 37.2739 21.999C37.3026 22.0241 37.3244 22.0561 37.3372 22.0919C37.3501 22.1277 37.3536 22.1662 37.3475 22.2037C39.249 24.4223 41.0747 26.7103 43.267 28.6657C43.3702 28.756 43.4564 28.8729 43.5675 28.9547C44.3267 29.4985 45.0395 30.6216 46.0591 29.9322C47.0164 29.2884 46.1391 28.3474 45.9075 27.5442C45.8877 27.4086 45.8847 27.271 45.8987 27.1347C46.5581 27.0769 46.9054 27.6128 47.4006 27.7988C48.1394 28.0933 48.9603 28.8928 49.6639 28.0578C50.4388 27.1399 49.5344 26.4183 48.932 25.8272C46.9673 23.9122 44.7317 22.2941 42.2966 21.0243C40.4177 19.9956 38.3897 19.2643 36.2856 18.8568C35.5707 18.7246 34.7886 18.6276 34.3512 17.7669C35.0489 17.4591 35.7663 17.6597 36.4508 17.7353C39.1321 17.9839 41.7556 18.716 44.4799 18.6407C45.9694 18.6437 47.4487 18.4006 48.8577 17.9213Z" fill="#868032" fill-opacity="0.6"/>
</svg>
